<svg width="32" height="32" viewBox="0 0 32 32" fill="none" xmlns="http://www.w3.org/2000/svg">
  <!-- Background -->
  <rect width="32" height="32" rx="6" fill="url(#gradient)"/>
  
  <!-- Modern "S" and "D" lettermark representing ServDubai -->
  <!-- "S" for Serv in primary green -->
  <path d="M8 12c0-2 1.5-3 3.5-3s3.5 1 3.5 3c0 1.5-1 2.5-2.5 3l-2 1c-1.5 0.5-2.5 1.5-2.5 3c0 2 1.5 3 3.5 3s3.5-1 3.5-3" 
        stroke="#10b981" stroke-width="2" stroke-linecap="round" fill="none"/>
  
  <!-- "D" for Dubai in secondary teal -->
  <path d="M18 9v14m0-14h3c3 0 5 2 5 5v4c0 3-2 5-5 5h-3" 
        stroke="#0d9488" stroke-width="2" stroke-linecap="round" stroke-linejoin="round" fill="none"/>
  
  <!-- Small dot accent -->
  <circle cx="26" cy="10" r="1.5" fill="#06b6d4"/>
  
  <defs>
    <linearGradient id="gradient" x1="0%" y1="0%" x2="100%" y2="100%">
      <stop offset="0%" style="stop-color:#ffffff;stop-opacity:1" />
      <stop offset="100%" style="stop-color:#f8fafc;stop-opacity:1" />
    </linearGradient>
  </defs>
</svg>
